<?xml version="1.0" standalone="no"?>
<!DOCTYPE svg PUBLIC "-//W3C//DTD SVG 20010904//EN"
 "http://www.w3.org/TR/2001/REC-SVG-20010904/DTD/svg10.dtd">
<svg version="1.0" xmlns="http://www.w3.org/2000/svg"
 width="128.000000pt" height="128.000000pt" viewBox="0 0 128.000000 128.000000"
 preserveAspectRatio="xMidYMid meet">
<metadata>
Created by potrace 1.14, written by Peter Selinger 2001-2017
</metadata>
<g transform="translate(0.000000,128.000000) scale(0.100000,-0.100000)"
fill="#000000" stroke="none">
<path d="M551 1241 c-6 -20 -16 -58 -23 -84 l-12 -48 59 -54 c33 -30 65 -55
70 -54 6 0 35 25 66 57 l57 57 -27 80 -26 80 -77 1 -78 2 -9 -37z"/>
<path d="M408 1236 c-74 -30 -133 -66 -186 -112 l-44 -37 53 -53 c30 -30 56
-54 59 -54 3 0 40 33 82 73 67 63 77 78 86 122 6 28 14 58 17 68 9 22 2 21
-67 -7z"/>
<path d="M800 1250 c0 -7 8 -41 17 -77 16 -58 24 -70 77 -116 33 -29 65 -58
72 -64 19 -20 24 -17 82 40 l53 52 -48 43 c-68 61 -253 150 -253 122z"/>
<path d="M445 1014 c-17 -15 -46 -39 -65 -55 l-35 -29 60 -60 c33 -33 64 -59
69 -60 10 0 116 110 116 120 0 6 -50 53 -96 92 -19 16 -21 16 -49 -8z"/>
<path d="M751 983 l-62 -56 58 -59 c31 -32 61 -58 64 -58 11 0 135 118 129
122 -3 2 -32 27 -66 55 l-61 52 -62 -56z"/>
<path d="M112 1003 c-63 -90 -132 -301 -99 -304 37 -4 109 -4 116 1 9 6 111
190 111 200 0 4 -17 27 -37 50 -21 24 -45 51 -55 62 -16 18 -17 18 -36 -9z"/>
<path d="M1108 988 c-20 -24 -45 -54 -56 -66 l-21 -24 35 -61 c19 -34 43 -80
55 -102 l20 -40 65 1 c35 1 67 4 70 7 3 3 -3 41 -14 85 -21 80 -64 178 -99
220 l-18 24 -37 -44z"/>
<path d="M578 801 l-58 -56 0 -80 0 -80 62 -68 61 -67 67 70 66 69 -1 77 -1
77 -64 58 c-36 32 -67 58 -70 58 -3 -1 -31 -27 -62 -58z"/>
<path d="M256 759 l-57 -90 51 -95 c28 -52 53 -94 56 -94 3 0 34 23 69 52 69
55 69 54 65 158 -1 39 -7 51 -48 93 -77 78 -73 79 -136 -24z"/>
<path d="M913 799 c-32 -30 -61 -57 -64 -62 -3 -4 -5 -42 -4 -84 2 -56 6 -78
17 -84 9 -5 40 -29 69 -53 30 -25 54 -44 55 -43 1 1 24 45 52 97 l51 95 -59
94 -59 93 -58 -53z"/>
<path d="M5 563 c13 -98 65 -236 111 -291 l19 -24 50 78 c27 43 49 85 49 93 1
9 -21 55 -49 103 l-50 88 -68 0 -68 0 6 -47z"/>
<path d="M1116 556 c-18 -28 -45 -71 -59 -96 l-26 -45 56 -84 56 -85 19 25
c50 61 104 199 113 290 l5 45 -66 0 -66 1 -32 -51z"/>
<path d="M409 450 l-64 -58 66 -66 65 -65 64 64 64 65 -29 31 c-17 17 -46 44
-66 59 l-35 29 -65 -59z"/>
<path d="M744 445 l-61 -60 63 -62 64 -63 65 62 65 62 -42 44 c-24 24 -54 51
-68 61 -25 16 -25 16 -86 -44z"/>
<path d="M232 263 l-52 -68 47 -42 c53 -46 111 -81 189 -112 l51 -20 -21 82
c-20 77 -25 86 -91 155 l-70 73 -53 -68z"/>
<path d="M919 253 c-59 -61 -68 -75 -87 -145 -12 -42 -22 -79 -22 -82 0 -8 69
18 126 47 56 28 154 104 154 119 0 10 -87 121 -99 126 -3 1 -36 -28 -72 -65z"/>
<path d="M578 248 l-66 -63 31 -90 32 -90 75 0 75 0 23 89 24 89 -64 64 -64
64 -66 -63z"/>
</g>
</svg>
